<?xml version="1.0" standalone="no"?>
<!DOCTYPE svg PUBLIC "-//W3C//DTD SVG 20010904//EN"
 "http://www.w3.org/TR/2001/REC-SVG-20010904/DTD/svg10.dtd">
<svg version="1.0" xmlns="http://www.w3.org/2000/svg"
 width="200.000000pt" height="200.000000pt" viewBox="0 0 200.000000 200.000000"
 preserveAspectRatio="xMidYMid meet">

<g transform="translate(0.000000,200.000000) scale(0.100000,-0.100000)"
fill="#000000" stroke="none">
<path d="M0 1950 l0 -51 43 6 c23 3 130 14 237 25 696 72 687 68 173 69 l-453
1 0 -50z"/>
<path d="M1905 1958 c3 -24 12 -110 20 -193 8 -82 22 -211 30 -285 9 -74 22
-193 29 -265 13 -127 14 -119 15 328 l1 457 -50 0 -51 0 6 -42z"/>
<path d="M1200 1975 c-52 -7 -97 -13 -100 -14 -3 -1 27 -15 65 -32 83 -36 96
-48 120 -114 10 -27 27 -62 37 -77 11 -16 15 -28 9 -28 -6 0 -11 -4 -11 -10 0
-5 8 -7 18 -4 14 5 15 4 2 -5 -9 -6 -36 -8 -67 -4 -36 4 -58 2 -68 -7 -8 -7
-15 -9 -15 -5 0 4 -7 2 -15 -5 -27 -22 -16 -31 21 -15 20 8 53 15 73 14 33 -1
34 -2 11 -9 -21 -7 -19 -8 18 -9 34 -1 42 -4 42 -20 0 -11 3 -27 7 -37 6 -16
7 -16 15 2 5 12 6 5 2 -20 -3 -25 -1 -42 6 -46 15 -9 32 -153 24 -200 -4 -19
-17 -57 -31 -84 -15 -31 -18 -44 -9 -37 22 18 32 8 46 -46 17 -62 19 -66 33
-54 8 6 16 4 25 -5 7 -8 9 -14 5 -14 -4 0 0 -5 9 -11 31 -17 41 -81 23 -148
-26 -102 -81 -201 -111 -201 -18 0 -49 19 -146 93 -84 63 -101 83 -143 166
-15 30 -34 61 -41 69 -8 8 -21 27 -29 43 -15 29 -15 29 11 29 l27 0 -26 20
c-34 27 -41 26 -85 -18 -33 -34 -146 -94 -248 -132 -22 -8 -37 -26 -57 -66
-17 -34 -36 -58 -51 -64 -13 -5 -32 -21 -43 -35 -10 -15 -31 -41 -47 -59 -15
-17 -41 -49 -57 -72 -15 -23 -39 -48 -53 -58 -20 -12 -26 -25 -26 -51 0 -18
-9 -49 -20 -67 l-19 -34 87 -85 c87 -85 159 -135 261 -178 57 -24 70 -20 71
24 0 11 4 27 10 35 8 13 9 13 13 0 25 -83 32 -100 46 -106 9 -3 75 -9 147 -12
144 -5 225 8 344 55 65 26 78 33 155 81 60 38 218 201 244 252 12 25 31 59 41
77 44 74 73 193 78 323 2 69 9 128 14 131 5 3 -10 23 -33 43 -54 46 -161 81
-293 95 -54 6 -103 14 -108 17 -6 4 -7 34 -2 78 8 81 8 160 -2 229 -5 40 -4
46 10 41 15 -6 22 7 16 31 -1 6 -6 46 -10 91 -8 82 -33 148 -72 190 -10 12
-22 34 -27 50 -4 15 -11 28 -17 29 -5 1 -52 -4 -104 -10z m458 -1336 c-11 -7
-10 -9 1 -9 8 0 12 -3 9 -6 -7 -6 -48 17 -48 27 0 3 12 4 26 1 19 -3 22 -7 12
-13z m50 -8 c11 -7 11 -9 -1 -14 -16 -6 -27 0 -27 15 0 10 11 10 28 -1z m-44
-48 c-7 -37 -14 -42 -14 -11 0 21 7 38 16 38 1 0 0 -12 -2 -27z m-349 -159
c25 -21 26 -23 5 -12 -29 15 -55 38 -43 38 4 0 22 -12 38 -26z m-51 -69 c3 -8
1 -15 -4 -15 -6 0 -10 7 -10 15 0 8 2 15 4 15 2 0 6 -7 10 -15z"/>
<path d="M838 1937 l-76 -9 -17 -76 c-19 -82 -16 -140 12 -274 20 -96 42 -124
115 -148 50 -16 62 -17 105 -6 77 20 91 32 105 84 11 37 18 47 36 48 12 1 19
-3 16 -7 -3 -5 9 -23 26 -40 30 -30 34 -31 91 -25 33 3 69 11 80 17 33 17 17
19 -31 3 -85 -29 -149 -1 -153 69 -2 20 -6 24 -22 20 -11 -3 -40 -4 -65 -4
-36 0 -41 -1 -23 -9 29 -12 36 -40 21 -86 -11 -32 -20 -41 -53 -52 -49 -16
-121 -12 -117 6 1 8 -2 11 -7 8 -5 -3 -11 1 -15 9 -3 8 0 14 7 12 8 -1 11 11
9 40 -3 47 4 54 63 65 l40 7 -42 -2 c-33 -2 -39 0 -31 10 6 7 32 13 59 13 27
0 49 5 49 10 0 6 -1 10 -2 11 -69 13 -86 10 -120 -25 l-35 -36 -5 107 c-5 98
-3 112 17 153 27 53 57 83 105 104 l35 15 -50 -1 c-27 0 -85 -5 -127 -11z"/>
<path d="M1205 1640 c-7 -12 2 -12 30 0 19 8 19 9 -2 9 -12 1 -25 -3 -28 -9z"/>
<path d="M1242 1610 c-42 -10 -48 -16 -33 -34 12 -14 55 -11 46 4 -2 4 7 5 20
2 14 -2 25 0 25 6 0 19 -25 29 -58 22z"/>
<path d="M932 1562 c-7 -5 -10 -16 -6 -25 8 -23 82 -24 91 -1 3 8 12 13 19 10
8 -3 14 -2 14 3 0 16 -55 20 -83 6 -25 -13 -28 -13 -23 0 6 17 6 18 -12 7z"/>
<path d="M1437 1473 c-4 -3 -7 -11 -7 -17 0 -6 5 -5 12 2 6 6 9 14 7 17 -3 3
-9 2 -12 -2z"/>
<path d="M1088 1383 c7 -3 16 -2 19 1 4 3 -2 6 -13 5 -11 0 -14 -3 -6 -6z"/>
<path d="M1695 1380 c-3 -6 1 -7 9 -4 18 7 21 14 7 14 -6 0 -13 -4 -16 -10z"/>
<path d="M1225 1350 c-19 -8 -19 -9 3 -9 12 -1 25 -1 29 -2 4 0 9 4 11 10 4
13 -15 13 -43 1z"/>
<path d="M1734 1333 c-2 -31 -13 -41 -24 -23 -8 12 -10 12 -10 2 0 -8 9 -16
21 -19 19 -5 19 -7 -8 -24 -15 -11 -23 -19 -18 -19 25 0 53 30 48 51 -3 12 -1
24 6 28 9 6 9 10 -1 19 -10 8 -13 5 -14 -15z"/>
<path d="M1750 1311 c0 -6 5 -13 10 -16 16 -10 12 -21 -14 -35 -28 -14 -23
-23 33 -53 23 -12 32 -13 29 -5 -3 7 -13 37 -23 66 -17 46 -35 69 -35 43z"/>
<path d="M1043 1299 c14 -8 22 -8 30 0 8 8 3 11 -18 11 -26 -1 -28 -2 -12 -11z"/>
<path d="M1125 1270 l-20 -9 20 0 c11 0 27 4 35 9 13 9 13 10 0 9 -8 0 -24 -4
-35 -9z"/>
<path d="M1603 1263 c9 -2 23 -2 30 0 6 3 -1 5 -18 5 -16 0 -22 -2 -12 -5z"/>
<path d="M1 458 l-1 -458 50 0 51 0 -6 43 c-3 23 -12 110 -20 192 -9 83 -22
208 -29 280 -8 72 -20 184 -26 250 -6 66 -13 127 -15 135 -1 8 -3 -191 -4
-442z"/>
<path d="M1890 88 c-36 -4 -155 -17 -265 -28 -110 -12 -243 -26 -295 -31 -52
-6 -129 -14 -170 -18 -47 -5 93 -9 383 -10 l457 -1 0 50 c0 56 12 52 -110 38z"/>
</g>
</svg>
