<?xml version="1.0" standalone="no"?>
<!DOCTYPE svg PUBLIC "-//W3C//DTD SVG 20010904//EN"
 "http://www.w3.org/TR/2001/REC-SVG-20010904/DTD/svg10.dtd">
<svg version="1.0" xmlns="http://www.w3.org/2000/svg"
 width="200.000000pt" height="200.000000pt" viewBox="0 0 200.000000 200.000000"
 preserveAspectRatio="xMidYMid meet">

<g transform="translate(0.000000,200.000000) scale(0.100000,-0.100000)"
fill="#000000" stroke="none">
<path d="M1200 1975 c-52 -7 -97 -13 -100 -14 -3 -1 27 -15 65 -32 83 -36 96
-48 120 -114 10 -27 27 -62 37 -77 12 -17 15 -28 8 -28 -7 0 -10 -7 -6 -15 5
-13 -3 -14 -49 -9 -38 5 -59 3 -70 -6 -8 -7 -15 -9 -15 -5 0 4 -7 2 -15 -5
-27 -22 -16 -31 21 -15 20 8 53 15 73 14 33 -1 34 -2 11 -9 -21 -7 -19 -8 18
-9 34 -1 42 -4 42 -20 0 -11 3 -27 7 -37 6 -16 7 -16 15 2 5 12 6 5 2 -20 -3
-25 -1 -42 6 -46 15 -9 32 -153 24 -200 -4 -19 -11 -41 -17 -47 -5 -7 -6 -13
-2 -13 3 0 -4 -17 -16 -37 -16 -27 -18 -34 -7 -25 24 19 33 10 48 -45 17 -62
19 -66 33 -54 8 6 16 4 25 -5 7 -8 9 -14 5 -14 -4 0 0 -5 9 -11 31 -17 41 -81
23 -148 -26 -103 -81 -201 -111 -201 -19 0 -98 52 -179 117 -45 36 -69 66 -97
118 -20 39 -41 75 -47 82 -14 15 -51 76 -51 84 0 3 12 4 28 1 l27 -5 -27 22
c-35 28 -42 27 -86 -17 -33 -34 -146 -94 -248 -132 -22 -8 -37 -26 -57 -66
-17 -34 -36 -58 -51 -64 -13 -5 -32 -21 -43 -35 -10 -15 -31 -41 -47 -59 -15
-17 -41 -49 -57 -72 -15 -23 -39 -48 -53 -58 -20 -12 -26 -25 -26 -51 0 -18
-9 -49 -20 -67 l-19 -34 87 -86 c86 -84 156 -131 257 -175 54 -23 75 -18 75
21 0 11 4 28 10 36 8 13 9 13 13 0 25 -84 32 -100 46 -106 32 -13 260 -17 323
-5 117 22 245 74 331 133 58 40 213 203 236 248 12 25 30 59 40 75 19 32 52
130 70 207 6 26 11 92 11 147 0 74 3 101 13 101 6 1 -8 19 -32 40 -54 50 -164
86 -298 100 -52 6 -99 13 -105 16 -6 4 -7 33 -2 78 8 81 8 160 -2 229 -5 40
-4 46 10 41 15 -6 22 7 16 31 -1 6 -6 46 -10 91 -8 82 -33 148 -72 190 -10 12
-22 34 -27 50 -4 15 -11 28 -17 29 -5 1 -52 -4 -104 -10z m458 -1336 c-11 -7
-10 -9 1 -9 8 0 12 -3 9 -6 -7 -6 -48 17 -48 27 0 3 12 4 26 1 19 -3 22 -7 12
-13z m50 -8 c11 -7 11 -9 -1 -14 -16 -6 -27 0 -27 15 0 10 11 10 28 -1z m-44
-48 c-7 -37 -14 -42 -14 -11 0 21 7 38 16 38 1 0 0 -12 -2 -27z m-349 -159
c25 -21 26 -23 5 -12 -29 15 -55 38 -43 38 4 0 22 -12 38 -26z m-51 -69 c3 -8
1 -15 -4 -15 -6 0 -10 7 -10 15 0 8 2 15 4 15 2 0 6 -7 10 -15z"/>
<path d="M838 1937 l-76 -9 -17 -76 c-19 -82 -16 -140 12 -274 20 -96 42 -124
115 -148 50 -16 62 -17 105 -6 77 20 91 32 105 84 11 37 18 47 36 48 12 1 19
-3 16 -7 -3 -5 9 -23 26 -40 30 -30 34 -31 91 -25 33 3 69 11 80 17 33 17 17
19 -31 3 -85 -29 -149 -1 -153 69 -2 20 -6 24 -22 20 -11 -3 -40 -4 -65 -4
-37 0 -41 -1 -23 -9 30 -12 38 -49 19 -93 -12 -29 -22 -38 -56 -47 -53 -14
-116 -10 -112 8 1 8 -2 11 -7 8 -5 -3 -11 1 -15 9 -3 8 0 14 7 12 8 -1 11 11
9 40 -3 47 4 54 63 65 l40 7 -42 -2 c-33 -2 -39 0 -31 10 6 7 32 13 59 13 27
0 49 5 49 10 0 6 -1 10 -2 11 -69 13 -86 10 -120 -25 l-35 -36 -5 107 c-5 98
-3 112 17 153 27 53 57 83 105 104 l35 15 -50 -1 c-27 0 -85 -5 -127 -11z"/>
<path d="M1205 1640 c-7 -12 2 -12 30 0 19 8 19 9 -2 9 -12 1 -25 -3 -28 -9z"/>
<path d="M1242 1610 c-42 -10 -48 -16 -33 -34 12 -14 55 -11 46 4 -2 4 7 5 20
2 14 -2 25 0 25 6 0 19 -25 29 -58 22z"/>
<path d="M932 1562 c-7 -5 -10 -16 -6 -25 8 -23 82 -24 91 -1 3 8 12 13 19 10
8 -3 14 -2 14 3 0 16 -55 20 -83 6 -25 -13 -28 -13 -23 0 6 17 6 18 -12 7z"/>
<path d="M1437 1473 c-4 -3 -7 -11 -7 -17 0 -6 5 -5 12 2 6 6 9 14 7 17 -3 3
-9 2 -12 -2z"/>
<path d="M1693 1385 c0 -7 6 -11 14 -8 7 3 13 6 13 8 0 2 -6 5 -13 8 -8 3 -14
-1 -14 -8z"/>
<path d="M1088 1383 c7 -3 16 -2 19 1 4 3 -2 6 -13 5 -11 0 -14 -3 -6 -6z"/>
<path d="M1225 1350 c-19 -8 -19 -9 3 -9 12 -1 25 -1 29 -2 4 0 9 4 11 10 4
13 -15 13 -43 1z"/>
<path d="M1736 1346 c3 -9 2 -16 -4 -16 -6 0 -13 6 -15 13 -4 7 -6 8 -6 1 -2
-21 23 -33 36 -19 10 10 9 16 -3 26 -12 10 -13 9 -8 -5z"/>
<path d="M1704 1308 c3 -10 0 -20 -6 -24 -7 -4 -4 -10 7 -16 12 -7 22 -6 33 6
14 14 14 16 -4 22 -10 4 -23 12 -27 18 -6 7 -7 4 -3 -6z m36 -22 c0 -2 -7 -6
-15 -10 -8 -3 -15 -1 -15 4 0 6 7 10 15 10 8 0 15 -2 15 -4z"/>
<path d="M1750 1311 c0 -6 4 -13 10 -16 13 -8 -10 -45 -28 -45 -18 0 2 -18 47
-44 32 -18 34 -18 28 -2 -4 10 -10 29 -13 42 -3 13 -10 24 -15 24 -5 0 -8 3
-8 8 4 21 -2 42 -11 42 -5 0 -10 -4 -10 -9z m40 -81 c0 -5 -7 -7 -15 -4 -8 4
-15 8 -15 10 0 2 7 4 15 4 8 0 15 -4 15 -10z"/>
<path d="M1043 1299 c14 -8 22 -8 30 0 8 8 3 11 -18 11 -26 -1 -28 -2 -12 -11z"/>
<path d="M1125 1270 l-20 -9 20 0 c11 0 27 4 35 9 13 9 13 10 0 9 -8 0 -24 -4
-35 -9z"/>
<path d="M1603 1263 c9 -2 23 -2 30 0 6 3 -1 5 -18 5 -16 0 -22 -2 -12 -5z"/>
<path d="M1690 1249 c0 -5 5 -7 10 -4 6 3 10 8 10 11 0 2 -4 4 -10 4 -5 0 -10
-5 -10 -11z"/>
</g>
</svg>
